{"title":"D.A.R.Y.L. (1985) - DVDRip - MP3 - ENG","uid":4399909,"size":741172795,"categoryP":"video","categoryS":"movies","magnet":"?xt=urn:btih:12f03ced8d65f8e71ab097edda615b37d97488aa&amp;dn=D.A.R.Y.L.+%281985%29+-+DVDRip+-+MP3+-+ENG&amp;tr=udp%3A%2F%2Ftracker.openbittorrent.com%3A80&amp;tr=udp%3A%2F%2Fopen.demonii.com%3A1337&amp;tr=udp%3A%2F%2Ftracker.coppersurfer.tk%3A6969&amp;tr=udp%3A%2F%2Fexodus.desync.com%3A6969","seeders":4,"leechers":0,"uploader":"206andy206","files":-1,"time":1221632072,"description":"D.A.R.Y.L\n\nIMDB: http://www.imdb.com/title/tt0088979/\nUser Rating: 5.5/10   3,041 votes\nRelease Date: 14 June 1985 (USA)\nGenre: Family | Sci-Fi \nTagline: Becoming human was not part of the plan. Now they want to terminate him.\n\nPlot:\nA young boy is found wandering without any memory of who he is. A family takes him in and begin to look for clues to help him find his way home. In the meantime, they notice that the boy seems to have certain special abilities, not usually found in kids his age, or even fully-grown adults.\n\nCast:\nMary Beth Hurt\t ... \tJoyce Richardson\nMichael McKean\t ... \tAndy Richardson\nKathryn Walker\t ... \tDr. Ellen Lamb\nColleen Camp   \t ... \tElaine Fox\nJosef Sommer\t ... \tDr. Jeffrey Stewart\nRon Frazier\t ... \tGeneral Graycliffe\nSteve Ryan\t ... \tHowie Fox\nDavid Wohl\t ... \tMr. Nesbitt\nDanny Corkill\t ... \tTurtle Fox\nAmy Linker\t ... \tSherie Lee Fox\nBarret Oliver\t ... \tDaryl\nEd Grady\t ... \tMr. Bergen (as Ed L. Grady)\nTucker McGuire\t ... \tMrs. Bergen\nRichard Hammatt\t ... \tDr. Mulligan\nCharlie Gudger\t ... \tBasketball Kid #1\n\n\n\nGeneral\nComplete name                    : D.A.R.Y.L. (1985) - DVDRip - MP3 - ENG.avi\nFormat                           : AVI\nSource                           : PAL DVD\nFile size                        : 707 MiB\nDuration                         : 1h 36mn\nOveral bit rate                  : 1029 Kbps\nIAS1                             : English\n\nVideo\nFormat                           : MPEG-4 Visual\nCodec ID                         : XviD\nDuration                         : 1h 36mn\nBit rate                         : 894 Kbps\nWidth                            : 608 pixels\nHeight                           : 256 pixels\nDisplay aspect ratio             : 2.35\nFrame rate                       : 25.000 fps\nResolution                       : 8 bits\nColorimetry                      : 4:2:0\nScan type                        : Progressive\nBits/(Pixel*Frame)               : 0.230\nStream size                      : 614 MiB (87%)\n\nAudio\nFormat                           : MPEG Audio\nFormat version                   : Version 1\nFormat profile                   : Layer 3\nCodec ID                         : 55\nCodec ID/Hint                    : MP3\nDuration                         : 1h 36mn\nBit rate mode                    : Constant\nBit rate                         : 128 Kbps\nChannel(s)                       : 2 channels\nSampling rate                    : 48.0 KHz\nResolution                       : 16 bits\nStream size                      : 87.9 MiB (12%)\nWriting library                  : LAME3.97 \nEncoding settings                : CBR\n\n\n\nTrackers: &lt;a href=&quot;\nhttp://www.torrent-downloads.to:5869/announce&quot; rel=&quot;nofollow&quot; target=&quot;_NEW&quot;&gt;\nhttp://www.torrent-downloads.to:5869/announce&lt;/a&gt;\nhttp://open.tracker.thepiratebay.se:80/announce\nhttp://tpb.tracker.thepiratebay.se:80/announce\nhttp://vip.tracker.thepiratebay.se/announce\n\nInfo Hash: 12F03CED8D65F8E71AB097EDDA615B37D97488AA","torrent":{"xt":"urn:btih:12f03ced8d65f8e71ab097edda615b37d97488aa","amp;dn":"D.A.R.Y.L.+%281985%29+-+DVDRip+-+MP3+-+ENG","amp;tr":["udp%3A%2F%2Ftracker.openbittorrent.com%3A80","udp%3A%2F%2Fopen.demonii.com%3A1337","udp%3A%2F%2Ftracker.coppersurfer.tk%3A6969","udp%3A%2F%2Fexodus.desync.com%3A6969"],"infoHash":"12f03ced8d65f8e71ab097edda615b37d97488aa","infoHashBuffer":{"type":"Buffer","data":[18,240,60,237,141,101,248,231,26,176,151,237,218,97,91,55,217,116,136,170]},"announce":[],"urlList":[]}}